<?xml version="1.0" encoding="UTF-8"?>
<svg width="512" height="512" viewBox="0 0 512 512" fill="none" xmlns="http://www.w3.org/2000/svg">
  <circle cx="256" cy="256" r="256" fill="#DC2626"/>
  <path d="M256 96C167.6 96 96 167.6 96 256C96 344.4 167.6 416 256 416C344.4 416 416 344.4 416 256C416 167.6 344.4 96 256 96ZM256 384C178.8 384 128 333.2 128 256C128 178.8 178.8 128 256 128C333.2 128 384 178.8 384 256C384 333.2 333.2 384 256 384Z" fill="white"/>
  <path d="M256 160C238.3 160 224 174.3 224 192V256C224 273.7 238.3 288 256 288C273.7 288 288 273.7 288 256V192C288 174.3 273.7 160 256 160Z" fill="white"/>
  <path d="M256 320C247.2 320 240 327.2 240 336C240 344.8 247.2 352 256 352C264.8 352 272 344.8 272 336C272 327.2 264.8 320 256 320Z" fill="white"/>
</svg> 